<svg id="DCAN_brain-svg" xmlns="http://www.w3.org/2000/svg" xmlns:xlink="http://www.w3.org/1999/xlink" width="400" height="353.9245667686034" viewBox="0, 0, 400,353.9245667686034"><g id="svgg"><path id="path0" d="M183.078 0.238 C 151.671 2.332,129.124 8.112,105.199 20.201 C 20.143 63.179,-29.549 182.622,18.858 227.733 C 24.310 232.814,32.669 237.876,38.993 239.926 C 41.029 240.586,41.110 240.672,41.990 243.136 C 48.525 261.424,66.787 270.516,90.669 267.371 C 92.765 267.095,93.030 267.136,92.812 267.705 C 89.731 275.733,89.211 298.035,91.750 313.286 C 92.543 318.049,101.338 353.029,101.890 353.616 C 102.047 353.782,104.990 346.718,108.431 337.917 C 111.871 329.117,115.765 319.715,117.084 317.023 C 126.059 298.715,145.420 283.123,170.952 273.643 C 177.548 271.194,177.610 271.189,181.040 272.823 C 231.730 296.964,280.143 287.950,302.021 250.297 C 304.370 246.254,303.926 246.431,308.065 247.892 C 335.084 257.428,363.121 245.548,382.720 216.259 C 415.542 167.207,400.680 104.806,344.954 57.693 C 298.839 18.706,236.729 -3.339,183.078 0.238 M206.116 22.856 C 232.697 24.843,246.760 29.903,258.749 41.794 C 263.542 46.549,265.241 48.993,271.732 60.480 C 284.692 83.415,294.818 91.646,311.955 93.172 L 314.985 93.442 312.538 91.279 C 303.927 83.666,300.024 78.982,296.838 72.433 C 295.020 68.697,287.294 46.515,287.677 46.132 C 288.383 45.426,311.468 60.102,321.183 67.432 C 355.764 93.526,375.743 125.205,377.788 157.187 C 378.883 174.303,371.785 195.083,359.806 209.835 C 355.529 215.101,355.320 215.110,357.940 209.913 C 370.110 185.767,363.522 161.286,341.638 149.336 C 334.541 145.460,327.636 143.414,311.111 140.291 C 284.471 135.256,278.057 130.157,264.107 102.928 C 251.736 78.780,244.283 69.580,232.139 63.469 C 218.621 56.667,200.083 60.020,188.147 71.425 L 185.672 73.790 182.055 69.289 C 178.190 64.479,173.952 60.237,170.392 57.612 C 166.294 54.592,166.263 54.605,167.995 58.627 C 173.341 71.044,177.814 88.622,178.471 99.796 C 178.606 102.095,178.794 103.976,178.889 103.976 C 178.984 103.976,180.837 102.331,183.007 100.321 C 199.942 84.633,213.656 78.683,222.712 83.095 C 229.740 86.519,234.932 93.643,245.653 114.577 C 261.951 146.398,274.224 155.750,307.701 161.859 C 329.001 165.746,336.355 169.362,340.463 177.969 C 346.834 191.318,335.270 212.461,319.459 216.371 C 314.230 217.664,300.764 217.015,296.108 215.245 C 295.424 214.985,294.983 215.050,294.559 215.475 C 292.030 218.004,275.163 225.039,268.094 226.514 C 249.264 230.442,236.741 225.225,207.339 201.205 C 192.176 188.816,180.964 180.825,172.752 176.555 C 168.552 174.370,168.670 175.184,171.687 169.164 C 175.472 161.614,178.540 158.953,185.046 157.574 C 196.233 155.203,206.729 159.369,222.018 172.250 C 235.603 183.696,245.184 188.787,253.137 188.787 L 255.731 188.787 253.757 187.223 C 250.516 184.653,245.696 179.291,237.735 169.394 C 218.096 144.984,205.859 137.244,186.952 137.275 C 169.632 137.303,159.164 144.374,150.787 161.705 C 148.881 165.648,148.176 166.748,147.660 166.589 C 131.579 161.644,100.500 162.909,82.088 169.258 C 60.374 176.745,44.064 194.378,40.548 214.169 C 40.208 216.082,40.152 216.078,37.252 213.925 C 9.274 193.160,21.788 130.309,63.547 81.854 C 67.026 77.817,66.956 77.815,67.627 81.946 C 67.899 83.621,68.766 86.832,69.552 89.081 C 70.338 91.330,71.073 93.537,71.185 93.986 C 71.316 94.508,70.367 96.636,68.544 99.908 C 60.388 114.548,59.372 140.342,66.439 153.313 L 67.217 154.740 67.232 149.643 C 67.273 136.373,74.739 118.590,82.876 112.384 L 84.377 111.239 86.123 112.657 C 94.633 119.569,108.236 124.900,120.693 126.206 C 123.816 126.534,123.959 126.729,117.839 122.312 C 92.143 103.769,82.734 86.184,88.508 67.492 C 97.037 39.876,152.451 18.845,206.116 22.856 M128.239 185.541 C 148.909 187.219,164.425 194.564,188.587 214.106 C 204.071 226.629,207.099 229.010,211.663 232.255 C 233.121 247.509,251.248 252.180,272.313 247.884 C 277.516 246.822,277.499 246.801,274.030 250.074 C 254.580 268.422,223.688 268.734,187.319 250.949 L 180.346 247.540 175.086 248.915 C 153.413 254.584,131.659 266.374,117.061 280.363 C 114.573 282.747,112.539 284.447,112.541 284.142 C 112.558 280.116,114.781 270.961,116.982 265.851 C 119.167 260.778,120.086 259.551,135.918 240.571 C 143.868 231.040,150.328 223.193,150.273 223.133 C 150.219 223.074,140.376 227.045,128.400 231.958 C 99.741 243.716,95.711 244.918,83.588 245.325 C 69.207 245.807,63.683 242.143,61.971 230.987 C 57.939 204.714,77.265 187.907,114.208 185.558 C 121.722 185.081,122.558 185.080,128.239 185.541 " stroke="none" fill="#000000" fill-rule="evenodd"></path></g></svg>